HIERARCHY
ROOT joint_0
{
	OFFSET 0.000000 0.000000 0.000000
	CHANNELS 6 Xposition Yposition Zposition Zrotation Yrotation Xrotation 
	JOINT joint_1
	{
		OFFSET -0.613770 -1.125488 108.300049
		CHANNELS 3 Zrotation Yrotation Xrotation
		JOINT joint_2
		{
			OFFSET -10.925537 -0.900513 98.259033
			CHANNELS 3 Zrotation Yrotation Xrotation
			JOINT joint_3
			{
				OFFSET -11.287842 0.313599 98.110962
				CHANNELS 3 Zrotation Yrotation Xrotation
				JOINT joint_4
				{
					OFFSET -2.124268 2.484680 136.491943
					CHANNELS 3 Zrotation Yrotation Xrotation
					JOINT joint_5
					{
						OFFSET 16.640869 1.801270 81.862061
						CHANNELS 3 Zrotation Yrotation Xrotation
						End Site
						{
							OFFSET 0.000000 0.000000 0.000000
						}
					}
				}
				JOINT joint_6
				{
					OFFSET 0.447998 -28.248108 77.258057
					CHANNELS 3 Zrotation Yrotation Xrotation
					JOINT joint_7
					{
						OFFSET 7.918701 -130.256348 -24.086060
						CHANNELS 3 Zrotation Yrotation Xrotation
						JOINT joint_8
						{
							OFFSET 62.431885 -29.384277 -258.572021
							CHANNELS 3 Zrotation Yrotation Xrotation
							JOINT joint_9
							{
								OFFSET 53.743164 -21.907532 -238.024963
								CHANNELS 3 Zrotation Yrotation Xrotation
								End Site
								{
									OFFSET 0.000000 0.000000 0.000000
								}
							}
						}
					}
				}
				JOINT joint_10
				{
					OFFSET -2.846924 31.052063 76.130981
					CHANNELS 3 Zrotation Yrotation Xrotation
					JOINT joint_11
					{
						OFFSET 9.073730 131.055603 -18.752930
						CHANNELS 3 Zrotation Yrotation Xrotation
						JOINT joint_12
						{
							OFFSET 52.981201 29.883301 -260.613037
							CHANNELS 3 Zrotation Yrotation Xrotation
							JOINT joint_13
							{
								OFFSET 62.237793 15.935547 -236.423035
								CHANNELS 3 Zrotation Yrotation Xrotation
								End Site
								{
									OFFSET 0.000000 0.000000 0.000000
								}
							}
						}
					}
				}
			}
		}
	}
	JOINT joint_14
	{
		OFFSET 22.046143 -72.816772 -98.122925
		CHANNELS 3 Zrotation Yrotation Xrotation
		JOINT joint_15
		{
			OFFSET -23.673828 -54.692932 -469.927032
			CHANNELS 3 Zrotation Yrotation Xrotation
			JOINT joint_16
			{
				OFFSET -34.875244 -46.505249 -395.890999
				CHANNELS 3 Zrotation Yrotation Xrotation
				JOINT joint_17
				{
					OFFSET 168.486328 14.224182 -74.182999
					CHANNELS 3 Zrotation Yrotation Xrotation
					End Site
					{
						OFFSET 0.000000 0.000000 0.000000
					}
				}
			}
		}
	}
	JOINT joint_18
	{
		OFFSET -1.731934 82.408569 -92.846924
		CHANNELS 3 Zrotation Yrotation Xrotation
		JOINT joint_19
		{
			OFFSET -6.908936 32.203369 -472.535034
			CHANNELS 3 Zrotation Yrotation Xrotation
			JOINT joint_20
			{
				OFFSET -13.963135 23.196533 -399.207993
				CHANNELS 3 Zrotation Yrotation Xrotation
				JOINT joint_21
				{
					OFFSET 168.417725 19.834229 -73.041004
					CHANNELS 3 Zrotation Yrotation Xrotation
					End Site
					{
						OFFSET 0.000000 0.000000 0.000000
					}
				}
			}
		}
	}
}
MOTION
Frames: 17
Frame Time: 0.016667
-2625.298340 1034.964478 1046.697998 11.136924 -2.406656 -0.351507 0.060329 3.710369 4.812969 1.542161 -0.536749 -1.027024 2.004970 0.656612 0.705300 0.390374 0.782663 -2.161602 0.000000 0.000000 0.000000 2.159634 0.867981 -1.814625 -3.441482 1.315712 -9.804441 0.578165 -12.886833 -1.184166 0.000000 0.000000 0.000000 4.006532 3.789571 2.648292 -0.124905 2.305772 8.961183 -5.564979 -42.474163 0.220938 0.000000 0.000000 0.000000 -0.097037 -18.309993 5.311109 -4.053673 10.324051 -1.440882 -2.358957 -5.956605 -0.420257 0.000000 0.000000 0.000000 -6.220152 -8.746287 9.141954 -1.641289 55.047510 -13.441757 1.776748 24.675949 -2.602592 0.000000 0.000000 0.000000 
-2604.887207 1031.722412 1039.526978 11.440278 -3.315881 -1.070335 -0.303511 4.874109 6.041726 2.033952 -0.617904 -1.351050 2.668992 0.792092 0.782618 0.432362 0.603600 -2.347632 0.000000 0.000000 0.000000 2.222628 -0.505618 -1.363009 -3.267921 -0.133789 -10.361224 0.474684 -11.081259 -1.581522 0.000000 0.000000 0.000000 4.315146 3.907770 2.207638 -0.393712 2.237219 9.512290 -5.790211 -43.633736 1.081930 0.000000 0.000000 0.000000 -0.016052 -18.518945 6.687677 -4.753107 14.741067 -2.003208 -2.595478 -5.782601 -0.527979 0.000000 0.000000 0.000000 -6.816114 -10.203047 11.116341 -1.923951 60.093333 -14.682303 2.724256 25.364767 -2.330266 0.000000 0.000000 0.000000 
-2586.125000 1028.579712 1031.589966 11.610318 -4.265317 -1.833625 -0.894363 6.602100 7.222410 2.678321 -0.774136 -1.582578 3.496584 1.014421 0.836879 0.508656 0.106140 -2.634409 0.000000 0.000000 0.000000 2.524596 -2.332052 -0.713014 -3.173923 -1.978963 -11.183702 0.306445 -8.670092 -2.036141 0.000000 0.000000 0.000000 4.527106 3.983475 1.528177 -0.619830 2.141757 10.057148 -5.983405 -44.836826 2.074833 0.000000 0.000000 0.000000 0.097975 -19.367329 8.047653 -5.498699 20.255457 -2.513668 -2.708721 -5.101984 -0.630637 0.000000 0.000000 0.000000 -7.314489 -11.882382 12.949977 -2.117191 65.169234 -15.487770 3.769448 24.219768 -1.243296 0.000000 0.000000 0.000000 
-2567.511719 1026.090332 1024.307007 11.797895 -5.020256 -2.352412 -1.465310 8.260077 7.977588 3.294415 -0.964901 -1.702631 4.263859 1.230472 0.878681 0.559465 -0.322372 -2.814812 0.000000 0.000000 0.000000 2.672990 -4.303064 -0.011276 -3.130021 -3.955361 -11.758113 0.007811 -6.044293 -2.712103 0.000000 0.000000 0.000000 4.532763 4.157737 1.118443 -0.907318 2.265790 10.087864 -6.083711 -45.507685 3.159404 0.000000 0.000000 0.000000 0.014706 -19.993993 9.089251 -6.297578 25.017947 -2.969192 -2.876870 -5.013559 -0.706461 0.000000 0.000000 0.000000 -7.706329 -13.781460 14.208635 -2.389671 69.415768 -15.958848 4.069641 22.384289 0.331170 0.000000 0.000000 0.000000 
-2548.627930 1024.418579 1017.914978 11.951054 -5.409473 -2.564586 -1.900732 9.585282 8.327213 3.820594 -1.159977 -1.823034 4.939846 1.461209 0.904365 0.554604 -0.571703 -2.742358 0.000000 0.000000 0.000000 2.440681 -6.503144 0.798601 -3.115505 -6.167648 -11.789641 -0.586056 -2.980084 -3.994938 0.000000 0.000000 0.000000 4.163278 4.520743 1.270029 -1.330456 2.774056 9.216097 -6.007416 -45.536833 4.571066 0.000000 0.000000 0.000000 -0.271936 -20.291385 9.794399 -7.171718 28.775067 -3.515519 -3.155957 -6.819857 -0.662264 0.000000 0.000000 0.000000 -7.838530 -16.114394 14.767460 -2.670138 72.762149 -16.067394 3.632655 19.745338 2.057039 0.000000 0.000000 0.000000 
-2529.893555 1023.401062 1012.177002 12.033806 -5.563221 -2.619664 -2.242015 10.727132 8.482993 4.293493 -1.340306 -1.939588 5.556112 1.692433 0.915407 0.524651 -0.773635 -2.554844 0.000000 0.000000 0.000000 2.040967 -8.890777 1.779404 -3.269171 -8.523117 -11.498320 -1.439462 0.206770 -5.713967 0.000000 0.000000 0.000000 3.607002 4.944755 1.612118 -1.819751 3.449472 7.884705 -5.826860 -44.940125 6.046651 0.000000 0.000000 0.000000 -0.634888 -20.464879 10.310154 -8.037864 32.056481 -4.133787 -3.475327 -9.688491 -0.545624 0.000000 0.000000 0.000000 -7.685197 -18.773415 14.834343 -2.846614 75.354578 -15.825138 3.070245 16.327407 3.681524 0.000000 0.000000 0.000000 
-2511.064697 1023.103149 1007.802002 12.090140 -5.631587 -2.676012 -2.440867 11.525891 8.700797 4.673970 -1.446787 -2.032100 6.045212 1.823358 0.929852 0.500435 -0.889599 -2.432801 0.000000 0.000000 0.000000 1.735946 -10.901451 2.664206 -3.531059 -10.449502 -11.053663 -2.160793 2.432214 -7.137842 0.000000 0.000000 0.000000 3.288542 5.261587 1.737621 -2.230959 3.983741 6.785426 -5.687278 -43.385575 6.818494 0.000000 0.000000 0.000000 -1.021155 -20.297158 10.777979 -8.691070 34.519786 -4.667145 -3.741721 -12.159705 -0.447171 0.000000 0.000000 0.000000 -7.373562 -21.314696 14.684752 -2.928441 76.820385 -15.481525 2.947865 13.140888 4.509280 0.000000 0.000000 0.000000 
-2492.056152 1023.770020 1005.005981 12.179281 -5.642295 -2.806790 -2.491608 11.821879 9.171643 4.901177 -1.447629 -2.129338 6.350986 1.816636 0.979455 0.494967 -0.868709 -2.446428 0.000000 0.000000 0.000000 1.632077 -12.300383 3.246462 -3.763331 -11.733292 -10.501650 -2.523403 3.425747 -7.861388 0.000000 0.000000 0.000000 3.453409 5.392286 1.441970 -2.461782 4.217159 6.221207 -5.621098 -40.458607 6.496300 0.000000 0.000000 0.000000 -1.444233 -19.716497 11.230862 -9.088344 36.031064 -5.027137 -3.891167 -13.915426 -0.364357 0.000000 0.000000 0.000000 -7.030660 -23.566706 14.436620 -2.973663 76.936485 -15.243496 3.338539 10.626474 4.231729 0.000000 0.000000 0.000000 
-2472.954346 1025.158325 1003.572021 12.267101 -5.544061 -2.954199 -2.393714 11.729423 9.754371 5.006629 -1.380605 -2.239349 6.511564 1.736982 1.045948 0.493133 -0.752716 -2.490048 0.000000 0.000000 0.000000 1.610483 -13.284504 3.616891 -3.915348 -12.587751 -9.761897 -2.635461 3.642859 -8.112748 0.000000 0.000000 0.000000 3.852598 5.419920 0.947577 -2.534461 4.284117 5.887005 -5.521213 -36.519651 5.458014 0.000000 0.000000 0.000000 -1.886675 -18.854682 11.630672 -9.300144 36.797082 -5.274574 -3.924155 -15.451675 -0.252625 0.000000 0.000000 0.000000 -6.641545 -25.618213 14.015136 -2.958632 75.856744 -15.029633 3.901302 8.465054 3.416307 0.000000 0.000000 0.000000 
-2453.769043 1026.597290 1003.557007 12.261289 -5.361656 -3.076553 -2.116519 11.496095 10.200336 5.095742 -1.300026 -2.323496 6.618469 1.647518 1.083935 0.479807 -0.619030 -2.459745 0.000000 0.000000 0.000000 1.576079 -13.917737 3.812834 -3.937032 -13.085481 -8.795833 -2.517741 3.222783 -7.928183 0.000000 0.000000 0.000000 4.128771 5.447875 0.573475 -2.504350 4.375789 5.494378 -5.326112 -32.437406 4.154354 0.000000 0.000000 0.000000 -2.265971 -17.808101 12.005858 -9.306658 36.968697 -5.455918 -3.818215 -16.546816 -0.120250 0.000000 0.000000 0.000000 -6.159032 -27.425375 13.448818 -2.788583 73.829256 -14.677680 4.462639 6.406289 2.716291 0.000000 0.000000 0.000000 
-2434.584473 1027.683105 1005.150024 12.103303 -5.066884 -3.143245 -1.564144 11.140871 10.349592 5.205162 -1.217475 -2.344110 6.676808 1.567016 1.073797 0.445275 -0.482673 -2.299647 0.000000 0.000000 0.000000 1.482164 -14.179105 3.793898 -3.763580 -13.205439 -7.463144 -2.156529 2.071311 -7.315111 0.000000 0.000000 0.000000 4.123277 5.459723 0.441255 -2.386592 4.529747 4.981315 -5.014896 -28.211031 2.629455 0.000000 0.000000 0.000000 -2.528082 -16.625103 12.358707 -9.075850 36.505102 -5.573596 -3.542830 -17.069236 0.034798 0.000000 0.000000 0.000000 -5.575291 -28.946788 12.751408 -2.438975 70.664817 -14.148523 4.919676 4.559134 2.210570 0.000000 0.000000 0.000000 
-2415.317627 1028.819458 1008.161011 11.869167 -4.689708 -3.170117 -0.814623 10.643862 10.318544 5.286508 -1.128468 -2.325467 6.650973 1.483773 1.044123 0.397697 -0.333558 -2.057573 0.000000 0.000000 0.000000 1.388646 -14.117067 3.603673 -3.445584 -13.001244 -5.933999 -1.577972 0.245660 -6.310315 0.000000 0.000000 0.000000 3.990821 5.437890 0.349655 -2.179607 4.685325 4.495999 -4.596826 -23.656036 0.898417 0.000000 0.000000 0.000000 -2.702452 -15.262349 12.640853 -8.651737 35.431217 -5.597324 -3.131279 -17.155581 0.210132 0.000000 0.000000 0.000000 -4.925954 -30.091294 11.901294 -1.930459 66.317649 -13.410931 5.230119 3.214743 1.906689 0.000000 0.000000 0.000000 
-2395.730225 1030.555420 1012.080994 11.707031 -4.326799 -3.180709 -0.114058 10.162893 10.279751 5.305410 -1.044219 -2.324808 6.561157 1.412503 1.024016 0.348390 -0.204937 -1.796917 0.000000 0.000000 0.000000 1.347268 -13.879745 3.367510 -3.104344 -12.643344 -4.587676 -0.867503 -1.928439 -4.988129 0.000000 0.000000 0.000000 3.844690 5.495593 0.211718 -1.981469 4.927161 3.991922 -4.129287 -19.419960 -0.638140 0.000000 0.000000 0.000000 -2.853604 -13.684131 12.796638 -8.137725 33.979763 -5.519531 -2.676647 -16.975248 0.380924 0.000000 0.000000 0.000000 -4.208042 -30.818740 10.855673 -1.254538 61.292982 -12.353299 5.516146 2.112134 1.875080 0.000000 0.000000 0.000000 
-2375.664062 1033.177246 1017.142029 11.714920 -4.075858 -3.129687 0.455532 9.855896 10.231524 5.231937 -0.995452 -2.357306 6.392040 1.371032 1.020780 0.295180 -0.122205 -1.510699 0.000000 0.000000 0.000000 1.386609 -13.426762 3.077719 -2.760158 -12.114952 -3.538446 -0.008116 -4.628148 -3.243010 0.000000 0.000000 0.000000 3.706786 5.668550 0.082199 -1.855528 5.307176 3.340378 -3.646670 -15.621149 -1.925506 0.000000 0.000000 0.000000 -3.022349 -11.684247 12.737698 -7.530631 31.989418 -5.314557 -2.206792 -16.501347 0.532846 0.000000 0.000000 0.000000 -3.325473 -30.992912 9.451355 -0.334309 55.440253 -10.839479 5.995690 1.323652 2.049523 0.000000 0.000000 0.000000 
-2355.278564 1036.397705 1023.111023 11.757066 -3.881098 -3.025793 1.010259 9.650997 10.118604 5.103371 -0.996382 -2.381913 6.162443 1.341927 1.028331 0.239399 -0.056784 -1.212568 0.000000 0.000000 0.000000 1.483825 -12.793826 2.766604 -2.473336 -11.435922 -2.643111 0.879540 -7.766975 -1.204313 0.000000 0.000000 0.000000 3.551380 5.925187 -0.073798 -1.814480 5.784463 2.654998 -3.182500 -12.098842 -3.053325 0.000000 0.000000 0.000000 -3.134394 -9.413140 12.522353 -6.819290 29.551713 -4.996977 -1.723921 -15.653110 0.656001 0.000000 0.000000 0.000000 -2.323346 -30.591385 7.823254 0.744241 48.634477 -9.065683 6.314622 1.108054 2.195131 0.000000 0.000000 0.000000 
-2334.816895 1039.902954 1028.784058 11.716707 -3.551865 -2.996479 1.553388 9.238545 10.073685 4.954238 -0.978674 -2.383570 5.914277 1.289491 1.053346 0.196974 0.045130 -0.990076 0.000000 0.000000 0.000000 1.584154 -12.203164 2.521473 -2.328977 -10.799024 -1.819789 1.593722 -10.530436 0.815684 0.000000 0.000000 0.000000 3.445063 6.302463 -0.332368 -1.892252 6.343874 2.098020 -2.821633 -9.262896 -3.907096 0.000000 0.000000 0.000000 -3.133420 -7.431244 12.343643 -6.120707 27.325987 -4.630726 -1.271573 -14.619377 0.748735 0.000000 0.000000 0.000000 -1.453143 -29.943484 6.380125 1.653143 41.564475 -7.514868 5.962844 0.973659 2.125974 0.000000 0.000000 0.000000 
-2314.341797 1043.636841 1034.020996 11.636000 -2.917612 -3.148195 2.049415 8.343831 10.232961 4.756900 -0.868230 -2.361293 5.623480 1.181683 1.096257 0.178793 0.223867 -0.898759 0.000000 0.000000 0.000000 1.641523 -11.696143 2.275351 -2.271757 -10.243527 -0.973542 2.142179 -12.598761 2.785377 0.000000 0.000000 0.000000 3.428391 6.857903 -0.618968 -2.122556 7.041693 1.572068 -2.586676 -7.379643 -4.426732 0.000000 0.000000 0.000000 -3.039691 -5.969293 12.339605 -5.466582 25.416476 -4.240645 -0.859015 -13.487460 0.816613 0.000000 0.000000 0.000000 -0.856465 -29.218628 5.273122 2.187728 34.137322 -6.339653 4.841597 0.363644 1.816287 0.000000 0.000000 0.000000 
